<svg width="40" height="40" viewBox="0 0 40 40" fill="none" xmlns="http://www.w3.org/2000/svg">
<g clip-path="url(#clip0_4_74)">
<path fill-rule="evenodd" clip-rule="evenodd" d="M18.75 18.75H1.24098C0.555607 18.75 0 19.3048 0 20C0 20.6904 0.565453 21.25 1.24098 21.25H18.75V38.759C18.75 39.4444 19.3048 40 20 40C20.6904 40 21.25 39.4345 21.25 38.759V21.25H38.759C39.4444 21.25 40 20.6952 40 20C40 19.3096 39.4345 18.75 38.759 18.75H21.25V1.24098C21.25 0.555607 20.6952 0 20 0C19.3096 0 18.75 0.565453 18.75 1.24098V18.75Z" fill="#2A2630"/>
</g>
<defs>
<clipPath id="clip0_4_74">
<rect width="40" height="40" fill="white"/>
</clipPath>
</defs>
</svg>
