<svg width="35" height="35" viewBox="0 0 35 35" fill="none" xmlns="http://www.w3.org/2000/svg">
<path d="M10.5625 1.20996C10.9844 0.464844 11.8516 0 12.7969 0H22.2031C23.1484 0 24.0156 0.464844 24.4375 1.20996L25 2.1875H32.5C33.8828 2.1875 35 3.16504 35 4.375C35 5.58496 33.8828 6.5625 32.5 6.5625H2.5C1.11719 6.5625 0 5.58496 0 4.375C0 3.16504 1.11719 2.1875 2.5 2.1875H10L10.5625 1.20996ZM2.5 8.75H32.5V30.625C32.5 33.0381 30.2578 35 27.5 35H7.5C4.74219 35 2.5 33.0381 2.5 30.625V8.75ZM10 13.125C9.3125 13.125 8.75 13.6172 8.75 14.2188V29.5312C8.75 30.1328 9.3125 30.625 10 30.625C10.6875 30.625 11.25 30.1328 11.25 29.5312V14.2188C11.25 13.6172 10.6875 13.125 10 13.125ZM17.5 13.125C16.8125 13.125 16.25 13.6172 16.25 14.2188V29.5312C16.25 30.1328 16.8125 30.625 17.5 30.625C18.1875 30.625 18.75 30.1328 18.75 29.5312V14.2188C18.75 13.6172 18.1875 13.125 17.5 13.125ZM25 13.125C24.3125 13.125 23.75 13.6172 23.75 14.2188V29.5312C23.75 30.1328 24.3125 30.625 25 30.625C25.6875 30.625 26.25 30.1328 26.25 29.5312V14.2188C26.25 13.6172 25.6875 13.125 25 13.125Z" fill="white"/>
</svg>
