<svg width="79" height="68" viewBox="0 0 79 68" fill="none" xmlns="http://www.w3.org/2000/svg">
<path fill-rule="evenodd" clip-rule="evenodd" d="M14.8125 41.3125C12.8482 41.3125 10.9644 40.5421 9.57549 39.1707C8.18655 37.7994 7.40625 35.9394 7.40625 34C7.40625 32.0606 8.18655 30.2006 9.57549 28.8293C10.9644 27.4579 12.8482 26.6875 14.8125 26.6875C16.7768 26.6875 18.6606 27.4579 20.0495 28.8293C21.4385 30.2006 22.2188 32.0606 22.2188 34C22.2188 35.9394 21.4385 37.7994 20.0495 39.1707C18.6606 40.5421 16.7768 41.3125 14.8125 41.3125ZM39.5 41.3125C37.5357 41.3125 35.6519 40.5421 34.263 39.1707C32.874 37.7994 32.0938 35.9394 32.0938 34C32.0938 32.0606 32.874 30.2006 34.263 28.8293C35.6519 27.4579 37.5357 26.6875 39.5 26.6875C41.4643 26.6875 43.3481 27.4579 44.737 28.8293C46.126 30.2006 46.9062 32.0606 46.9062 34C46.9062 35.9394 46.126 37.7994 44.737 39.1707C43.3481 40.5421 41.4643 41.3125 39.5 41.3125ZM64.1875 41.3125C62.2232 41.3125 60.3394 40.5421 58.9505 39.1707C57.5615 37.7994 56.7813 35.9394 56.7812 34C56.7812 32.0606 57.5615 30.2006 58.9505 28.8293C60.3394 27.4579 62.2232 26.6875 64.1875 26.6875C66.1518 26.6875 68.0356 27.4579 69.4245 28.8293C70.8135 30.2006 71.5937 32.0606 71.5938 34C71.5937 35.9394 70.8135 37.7994 69.4245 39.1707C68.0356 40.5421 66.1518 41.3125 64.1875 41.3125Z" fill="black"/>
</svg>
