<svg width="100" height="100" viewBox="0 0 100 100" fill="none" xmlns="http://www.w3.org/2000/svg">
<path d="M92.187 70.8068L81.3894 64.5677L90.5051 59.1388C91.9707 58.4327 92.4242 56.4648 91.5908 55.018C90.7424 53.5364 88.9111 53.2239 87.521 54.0341L75.367 61.153L56.0508 49.9132L75.3668 38.7892L87.5209 45.8965C87.9005 46.1743 88.3889 46.3364 88.932 46.3364C89.9621 46.3364 90.8847 45.8503 91.5906 44.9241C92.4045 43.4541 91.9705 41.5094 90.505 40.8034L81.3892 35.3745L92.1869 29.1355C93.5943 28.3252 94.0782 26.5078 93.2725 25.0146C92.5029 23.5792 90.5987 23.0815 89.1483 23.9265L78.2963 30.2235L78.1342 19.3658C78.1088 17.6873 76.8319 16.3329 75.15 16.3329C73.4685 16.3329 72.1533 17.7914 72.166 19.3658L72.2737 33.6961L53.0665 44.82V22.2479L65.1663 15.349C66.5788 14.5502 67.1943 12.6866 66.3597 11.2282C65.5123 9.74657 63.7727 9.30658 62.29 10.1402L53.0665 15.3491V3.03269C53.0665 1.35426 51.7098 0 50.0279 0C48.3461 0 47.0438 1.35426 47.0438 3.03269V15.4646L37.494 10.14C36.0065 9.31814 34.3131 9.78113 33.4785 11.2281C32.6312 12.7097 33.1579 14.5271 34.6176 15.3488L47.0438 22.352V44.7042L27.4016 33.3719L27.5104 19.3656C27.6736 17.7914 26.2625 16.3328 24.5807 16.3328H24.4718C22.8987 16.3328 21.5051 17.6872 21.4877 19.3656L21.3789 29.8992L10.799 23.8221C9.32195 22.9655 7.49885 23.4748 6.72911 24.8986C5.92338 26.4034 6.3401 28.1745 7.81489 29.0311L18.5036 35.2123L9.17043 40.8032C7.70592 41.5094 7.24865 43.4772 8.14006 44.9241C8.71416 45.8618 9.55002 46.3364 10.6901 46.3364C11.2861 46.3364 11.7827 46.1859 12.2631 45.8965L24.4717 38.685L44.0597 49.9132L24.4717 61.2571L12.2631 54.0341C10.7976 53.1775 8.90852 53.5826 8.13992 55.018C7.33419 56.5112 7.77176 58.3055 9.17014 59.1388L18.5034 64.6718L7.8146 70.9109C6.34338 71.7675 5.8664 73.5733 6.72883 75.0434C7.33205 76.0621 8.14006 76.5599 9.27911 76.5599C9.55002 76.5599 10.0928 76.3978 10.799 76.12L21.3789 70.043L21.4877 80.5765C21.5051 82.255 22.8987 83.5514 24.4718 83.5514H24.5807C26.2625 83.5514 27.5231 82.1507 27.5104 80.4607L27.4016 66.466L47.0438 55.2379V77.4743L34.6176 84.4774C33.1348 85.3108 32.6161 87.1282 33.4785 88.5983C34.0816 89.6285 34.8896 90.1262 36.0285 90.1262C36.5715 90.1262 37.0715 90.0336 37.494 89.7904L47.0438 84.373V97.0134C47.0438 98.6919 48.3461 99.9998 50.0279 99.9998C51.7098 99.9998 53.0665 98.6919 53.0665 97.0134V84.5813L62.29 89.7904C62.7122 90.0335 63.2124 90.1262 63.701 90.1262C64.8942 90.1262 65.7741 89.6401 66.3597 88.5983C67.1839 87.1398 66.6515 85.3107 65.1663 84.4774L53.0665 77.6942V55.1221L72.2737 66.2461L72.166 80.4607C72.1521 82.1507 73.4683 83.5514 75.1502 83.5514C76.832 83.5514 78.1088 82.255 78.1342 80.5765L78.2963 69.6609L89.1483 76.0158C89.5673 76.2589 90.1251 76.34 90.7225 76.34C91.8617 76.34 92.6973 75.8654 93.2724 74.9277C94.1629 73.4808 93.5944 71.6171 92.187 70.8068Z" fill="black"/>
</svg>
