<svg width="35" height="35" viewBox="0 0 35 35" fill="none" xmlns="http://www.w3.org/2000/svg">
<path d="M28.0481 15.791L28.8206 15.0186L26.5032 12.7012L22.2581 8.45605L19.9407 6.13867L19.1682 6.91113L17.6233 8.45605L4.00611 22.0732C3.29517 22.7842 2.77564 23.666 2.48853 24.6299L0.0686104 32.8604C-0.102288 33.4346 0.0549385 34.0566 0.485603 34.4805C0.916267 34.9043 1.5315 35.0615 2.10572 34.8975L10.3294 32.4775C11.2932 32.1904 12.1751 31.6709 12.886 30.96L26.5032 17.3428L28.0481 15.791ZM10.9378 27.3027L10.3157 28.8545C10.0422 29.0664 9.73463 29.2236 9.4065 29.3262L4.0608 30.8984L5.63306 25.5596C5.72877 25.2246 5.89283 24.917 6.10474 24.6504L7.6565 24.0283V26.2158C7.6565 26.8174 8.14869 27.3096 8.75025 27.3096H10.9378V27.3027ZM24.7942 1.27832L23.8098 2.26953L22.2649 3.81445L21.4856 4.58691L23.803 6.9043L28.0481 11.1494L30.3655 13.4668L31.1379 12.6943L32.6829 11.1494L33.6741 10.1582C35.3831 8.44922 35.3831 5.68066 33.6741 3.97168L30.9876 1.27832C29.2786 -0.430664 26.51 -0.430664 24.801 1.27832H24.7942ZM21.554 12.7627L11.7102 22.6064C11.2864 23.0303 10.5891 23.0303 10.1653 22.6064C9.74146 22.1826 9.74146 21.4854 10.1653 21.0615L20.009 11.2178C20.4329 10.7939 21.1301 10.7939 21.554 11.2178C21.9778 11.6416 21.9778 12.3389 21.554 12.7627Z" fill="white"/>
</svg>
